Coordinates
version=1
nRows=10
nColumns=63
inDegrees=yes

Units are S.I. units (second, meters, Newtons, ...)
If the header above contains a line with 'inDegrees', this indicates whether rotational values are in degrees (yes) or radians (no).

endheader
time	pelvis_tilt	pelvis_list	pelvis_rotation	pelvis_tx	pelvis_ty	pelvis_tz	hip_flexion_r	hip_adduction_r	hip_rotation_r	knee_angle_r	knee_angle_r_beta	ankle_angle_r	subtalar_angle_r	mtp_angle_r	hip_flexion_l	hip_adduction_l	hip_rotation_l	knee_angle_l	knee_angle_l_beta	ankle_angle_l	subtalar_angle_l	mtp_angle_l	L5_S1_Flex_Ext	L5_S1_Lat_Bending	L5_S1_axial_rotation	L4_L5_Flex_Ext	L4_L5_Lat_Bending	L4_L5_axial_rotation	L3_L4_Flex_Ext	L3_L4_Lat_Bending	L3_L4_axial_rotation	L2_L3_Flex_Ext	L2_L3_Lat_Bending	L2_L3_axial_rotation	L1_L2_Flex_Ext	L1_L2_Lat_Bending	L1_L2_axial_rotation	L1_T12_Flex_Ext	L1_T12_Lat_Bending	L1_T12_axial_rotation	Abs_r3	Abs_r2	Abs_r1	Abs_t1	Abs_t2	neck_flexion	neck_bending	neck_rotation	arm_flex_r	arm_add_r	arm_rot_r	elbow_flex_r	pro_sup_r	wrist_flex_r	wrist_dev_r	arm_flex_l	arm_add_l	arm_rot_l	elbow_flex_l	pro_sup_l	wrist_flex_l	wrist_dev_l
      4.85000000	      0.03759028	      1.73138311	     89.78527267	      0.19035147	      0.97144739	      0.51639362	      1.23727167	      0.20665643	      4.24756371	      4.94110363	      0.08623853	     18.70361094	      8.09856309	      0.00000000	      0.23988713	     -1.52698296	    -10.70582898	      3.48380029	      0.06080379	     18.80159054	      8.11951782	      0.00000000	      0.16305660	      0.11232607	      0.26406423	      0.30281241	      0.14939367	      0.28056824	      0.26788569	      0.27310960	      0.28056824	      0.18635739	      0.27310960	      0.23105620	      0.15141436	      0.22905532	      0.21455218	      0.09317054	      0.17399308	      0.19804817	      1.16469699	      1.27065493	      1.46864601	      0.00000000	      0.00000000	      9.40572699	      1.41547767	    -24.10363408	     24.56187500	      0.30180853	     -2.15806055	    131.57918804	     85.34993793	    -17.82413100	      9.88871413	     38.70793047	     -7.04411462	      2.23332879	    120.33315638	     78.52224418	    -18.61882475	     -3.66320811
      4.86666667	      0.30005903	      1.23317899	     90.03641364	      0.18845044	      0.97081919	      0.51536153	      1.63782302	      0.39227386	      3.98074165	      4.82481074	      0.08420883	     18.60120205	      8.12178954	      0.00000000	      0.71782500	     -1.67775058	     -9.94970270	      3.41836540	      0.05966173	     18.83635636	      7.45259284	      0.00000000	      0.19215008	      0.16838163	      0.00466341	      0.35684191	      0.22394757	      0.00495488	      0.31568336	      0.40940310	      0.00495488	      0.21960833	      0.40940310	      0.00408049	      0.17843056	      0.34336383	      0.00378902	      0.10979456	      0.26082315	      0.00349756	      1.37250880	      1.90476672	      0.02593650	      0.00000000	      0.00000000	     11.20340998	      0.85447887	    -21.27155938	     24.60907052	     -0.74998719	     -0.42279552	    133.04615893	     82.28808650	    -17.03003964	      9.82584628	     37.02672185	     -7.59273371	      1.61408471	    125.05791004	     77.52325369	    -18.58585299	     -1.37198789
      4.88333333	      0.59380707	      0.78021736	     90.25298746	      0.18660747	      0.97023672	      0.51461289	      2.01306828	      0.59933093	      3.60630489	      4.71840796	      0.08235175	     18.47394147	      8.29109586	      0.00000000	      1.15841249	     -1.85998080	     -9.16713598	      3.33625535	      0.05822864	     18.82058236	      6.67319946	      0.00000000	      0.22660050	      0.24217964	     -0.31893095	      0.42081980	      0.32209892	     -0.33886413	      0.37228197	      0.58883558	     -0.33886413	      0.25898172	      0.58883558	     -0.27906458	      0.21042123	      0.49385272	     -0.25913140	      0.12947953	      0.37513626	     -0.23919821	      1.61858474	      2.73958453	     -1.77379825	      0.00000000	      0.00000000	     12.56432188	     -0.06472703	    -17.00826833	     24.81259064	     -1.64830017	      1.83331120	    133.44531491	     78.32333372	    -15.84731658	      9.60255957	     34.66580974	     -8.36424601	      0.45512835	    129.44429470	     75.95656687	    -18.04359451	     -0.14063604
      4.90000000	      0.85011904	      0.42459881	     90.42249750	      0.18519485	      0.96972405	      0.51421307	      2.35212759	      0.78227654	      3.21854051	      4.70819031	      0.08217342	     18.42979829	      8.49640955	      0.00000000	      1.53635118	     -2.03410199	     -8.59264424	      3.31235890	      0.05781157	     18.84686027	      6.03296649	      0.00000000	      0.25253942	      0.31146605	     -0.63757995	      0.46899096	      0.41424985	     -0.67742870	      0.41489702	      0.75729856	     -0.67742870	      0.28862730	      0.75729856	     -0.55788246	      0.23450811	      0.63514157	     -0.51803371	      0.14430103	      0.48246092	     -0.47818496	      1.80386383	      3.52336628	     -3.54602842	      0.00000000	      0.00000000	     13.51029137	     -1.09930954	    -12.57816253	     24.78635287	     -2.42921625	      4.05796264	    133.30020256	     74.40536263	    -14.32770059	      9.43104582	     31.92940474	     -9.23226512	     -0.81716632	    133.09603092	     74.62630728	    -17.56796213	      0.08477974
      4.91666667	      0.98505564	      0.17511271	     90.52277771	      0.18461503	      0.96926059	      0.51392557	      2.58813615	      0.88134654	      2.95604171	      4.69780308	      0.08199213	     18.51410433	      8.63880228	      0.00000000	      1.79627347	     -2.13899894	     -8.18347092	      3.29784142	      0.05755819	     18.89311113	      5.62388331	      0.00000000	      0.27457424	      0.35433513	     -0.90763365	      0.50991183	      0.47126572	     -0.96436075	      0.45109803	      0.86153043	     -0.96436075	      0.31381090	      0.86153043	     -0.79417944	      0.25496964	      0.72256019	     -0.73745234	      0.15689172	      0.54886511	     -0.68072523	      1.96125637	      4.00830984	     -5.04798605	      0.00000000	      0.00000000	     13.94829110	     -1.90565632	     -8.75401374	     24.29096024	     -2.97810460	      5.90988053	    132.83918093	     70.96232536	    -12.70588627	      9.15934421	     28.92956543	    -10.06557838	     -2.17453542	    135.87723432	     75.06862243	    -17.42605546	     -0.37766636
      4.93333333	      1.02060181	      0.06342019	     90.58946256	      0.18470129	      0.96873898	      0.51376414	      2.68587284	      0.92013840	      2.86507163	      4.70037661	      0.08203705	     18.65488630	      8.59173590	      0.00000000	      1.91427662	     -2.17603856	     -8.03069546	      3.29722009	      0.05754735	     19.02962847	      5.39067498	      0.00000000	      0.28364724	      0.36932768	     -1.09758067	      0.52676130	      0.49120581	     -1.16617946	      0.46600406	      0.89798332	     -1.16617946	      0.32418044	      0.89798332	     -0.96038309	      0.26339483	      0.75313300	     -0.89178430	      0.16207604	      0.57208858	     -0.82318550	      2.02606390	      4.17790858	     -6.10441443	      0.00000000	      0.00000000	     14.03391765	     -2.36680252	     -6.08545065	     23.39667007	     -3.52783239	      7.29070718	    132.32496110	     68.18298990	    -11.32438924	      9.01774820	     25.94186179	    -10.74315814	     -3.44003670	    137.77257724	     77.71758725	    -17.86701454	     -0.69816113
      4.95000000	      1.00076205	      0.04750067	     90.60792877	      0.18537300	      0.96802471	      0.51354318	      2.67228706	      0.94581507	      3.07193036	      4.69630632	      0.08196601	     18.89738658	      8.23868750	      0.00000000	      1.91687715	     -2.19817468	     -7.93861275	      3.31042119	      0.05777775	     19.27133878	      5.33357858	      0.00000000	      0.28317808	      0.36387511	     -1.20267750	      0.52589001	      0.48395390	     -1.27784484	      0.46523327	      0.88472594	     -1.27784484	      0.32364423	      0.88472594	     -1.05234281	      0.26295917	      0.74201412	     -0.97717547	      0.16180796	      0.56364254	     -0.90200812	      2.02271271	      4.11622801	     -6.68893144	      0.00000000	      0.00000000	     13.92778369	     -2.56114380	     -4.73410799	     22.33621396	     -4.17525002	      8.28914266	    131.82717513	     65.26480469	    -10.06760231	      9.24074042	     22.99460932	    -11.23802214	     -4.47741977	    138.93425013	     81.58559422	    -19.00597689	     -0.52872559
      4.96666667	      0.98215239	      0.10618990	     90.60810468	      0.18611761	      0.96697918	      0.51287771	      2.51553323	      0.99071218	      3.78169234	      4.64099798	      0.08100070	     19.10709100	      7.29433610	      0.00000000	      1.77640856	     -2.21908023	     -7.66992704	      3.26987834	      0.05707014	     19.67675405	      5.16639102	      0.00000000	      0.27917779	      0.35786480	     -1.25405022	      0.51846108	      0.47596019	     -1.33242836	      0.45866120	      0.87011248	     -1.33242836	      0.31907230	      0.87011248	     -1.09729394	      0.25924450	      0.72975790	     -1.01891580	      0.15952219	      0.55433258	     -0.94053767	      1.99413907	      4.04823820	     -6.97465111	      0.00000000	      0.00000000	     13.87880417	     -2.89851519	     -4.04687242	     21.38713768	     -4.93503578	      9.12582542	    131.18570369	     59.56258341	     -8.01742542	     10.14765685	     19.77850740	    -11.55567571	     -5.09561824	    139.51093695	     84.44815063	    -20.39745291	     -0.39797339
      4.98333333	      1.02809025	      0.19762037	     90.55065916	      0.18683196	      0.96552307	      0.51172515	      2.23209136	      1.10900745	      5.01840344	      4.48848371	      0.07833882	     19.22976546	      5.75262008	      0.00000000	      1.52885555	     -2.27928537	     -6.89233394	      3.15920486	      0.05513853	     20.00274398	      4.24172792	      0.00000000	      0.27211115	      0.36188050	     -1.26528659	      0.50533761	      0.48130106	     -1.34436700	      0.44705140	      0.87987624	     -1.34436700	      0.31099583	      0.87987624	     -1.10712576	      0.25268241	      0.73794671	     -1.02804535	      0.15548431	      0.56055289	     -0.94896494	      1.94366270	      4.09366455	     -7.03714441	      0.00000000	      0.00000000	     14.24589465	     -3.44743544	     -3.90723282	     20.63612692	     -5.83371250	      9.85205453	    130.19770796	     48.32951836	     -4.13171670	     12.46605554	     15.99093097	    -11.58847724	     -5.45030884	    139.63470152	     85.56681014	    -21.02546790	     -0.77920771
      5.00000000	      1.01895207	      0.31673143	     90.43515769	      0.18767006	      0.96371572	      0.51028100	      1.89871958	      1.16808278	      6.45050216	      4.36281385	      0.07614547	     19.36753531	      4.05225271	      0.00000000	      1.18886837	     -2.27139906	     -5.70433443	      2.97629799	      0.05194620	     20.19121366	      2.74488622	      0.00000000	      0.26473024	      0.35569679	     -1.24546036	      0.49163052	      0.47307672	     -1.32330163	      0.43492531	      0.86484116	     -1.32330163	      0.30256019	      0.86484116	     -1.08977781	      0.24582850	      0.72533688	     -1.01193654	      0.15126686	      0.55097432	     -0.93409527	      1.89094161	      4.02371317	     -6.92687688	      0.00000000	      0.00000000	     14.87480690	     -3.47829127	     -3.77004813	     19.93720465	     -6.58490267	     10.33396622	    128.58440861	     32.91000543	      0.71089093	     17.33164495	     11.68780203	    -11.47325537	     -5.42050200	    139.24893773	     85.84752241	    -21.26458659	     -1.12568179
